<?xml version="1.0" encoding="UTF-8"?><svg id="Layer_2" xmlns="http://www.w3.org/2000/svg" viewBox="0 0 192.17 32.93"><g id="Layer_1-2"><path d="m.52,31.92l-.52-5.16c1.53.62,2.83,1.06,3.89,1.3s2.04.36,2.93.36,1.64-.11,2.25-.32,1.06-.52,1.36-.94.45-.85.45-1.3c0-.2-.02-.39-.06-.56s-.11-.35-.21-.54-.22-.36-.35-.53-.32-.35-.55-.56-.57-.48-1.01-.81l-1.27-1.01c-1.22-.95-2.15-1.7-2.79-2.25s-1.18-1.11-1.62-1.68-.77-1.17-1-1.8-.34-1.28-.34-1.93c0-1.14.35-2.23,1.04-3.26s1.71-1.79,3.04-2.26,2.89-.71,4.69-.71c2.05,0,4.41.24,7.08.73l.3,4.9c-1.81-.73-3.55-1.1-5.23-1.1-.91,0-1.7.09-2.38.27s-1.17.45-1.46.82-.45.78-.45,1.23c0,.27.05.53.14.79s.26.53.49.81.5.55.81.8.94.74,1.91,1.48,1.82,1.4,2.54,1.99,1.32,1.19,1.79,1.79.83,1.25,1.08,1.93.38,1.38.38,2.09c0,1.17-.36,2.26-1.08,3.26s-1.8,1.78-3.26,2.34-3.08.84-4.88.84c-.94,0-2.08-.07-3.42-.22s-2.78-.41-4.31-.79Z" stroke-width="0"/><path d="m35.02,7.97c1.8,0,3.52.27,5.17.81s3.05,1.34,4.2,2.39,2.01,2.34,2.59,3.87.87,3.13.87,4.82c0,1.78-.3,3.5-.91,5.16s-1.49,3.09-2.65,4.3-2.6,2.12-4.32,2.72-3.57.9-5.52.9c-1.81,0-3.54-.27-5.17-.81s-3.03-1.35-4.18-2.43-2.04-2.39-2.64-3.94-.9-3.16-.9-4.85.27-3.36.82-4.92,1.4-2.95,2.57-4.17,2.65-2.16,4.46-2.84,3.69-1.01,5.62-1.01Zm0,4.83c-1.35,0-2.56.33-3.63,1s-1.86,1.65-2.38,2.96-.78,2.74-.78,4.29c0,1.36.21,2.57.64,3.63s1.13,1.92,2.1,2.58,2.13.98,3.47.98,2.57-.34,3.61-1.02c1.04-.68,1.81-1.68,2.34-3s.78-2.78.78-4.37c0-1.3-.2-2.48-.61-3.54s-1.09-1.91-2.04-2.55c-.96-.64-2.12-.96-3.49-.96Z" stroke-width="0"/><path d="m51.68,32.37c.36-3.55.66-7.53.9-11.95.24-4.42.38-8.38.41-11.88,1.44.03,2.59.05,3.45.05,1.02,0,2.1-.02,3.24-.05l-.26,3.98c.48-.69.91-1.23,1.28-1.64s.84-.8,1.41-1.2c.57-.39,1.18-.7,1.83-.94s1.38-.42,2.18-.56,1.64-.21,2.52-.21c1.39,0,2.72.18,4,.53,1.28.35,2.3.91,3.08,1.68.78.77,1.3,1.6,1.55,2.51s.38,1.87.38,2.88c0,.42-.02,1.09-.07,2.02l-.48,10.24c-.06,1.42-.1,2.94-.12,4.55-1.24-.03-2.29-.05-3.17-.05-1.19,0-2.38.02-3.59.05.12-1.36.28-3.73.47-7.11.19-3.38.28-5.62.28-6.71,0-1.23-.2-2.23-.59-2.98-.39-.75-.99-1.32-1.81-1.71-.82-.39-1.71-.59-2.66-.59s-1.81.18-2.62.54c-.81.36-1.51.88-2.11,1.57-.62.7-1.11,1.57-1.45,2.6-.36,1.09-.62,2.9-.8,5.41-.16,2.23-.28,5.23-.38,8.98-1.21-.03-2.29-.05-3.26-.05s-2.18.02-3.59.05Z" stroke-width="0"/><path d="m95.39,7.97c1.8,0,3.52.27,5.17.81s3.05,1.34,4.2,2.39,2.01,2.34,2.59,3.87.87,3.13.87,4.82c0,1.78-.3,3.5-.91,5.16s-1.49,3.09-2.65,4.3-2.6,2.12-4.32,2.72-3.57.9-5.52.9c-1.81,0-3.54-.27-5.17-.81s-3.03-1.35-4.18-2.43-2.04-2.39-2.64-3.94-.9-3.16-.9-4.85.27-3.36.82-4.92,1.4-2.95,2.57-4.17,2.65-2.16,4.46-2.84,3.69-1.01,5.63-1.01Zm0,4.83c-1.35,0-2.57.33-3.63,1s-1.86,1.65-2.38,2.96-.78,2.74-.78,4.29c0,1.36.21,2.57.64,3.63.43,1.06,1.13,1.92,2.1,2.58.97.66,2.13.98,3.47.98s2.57-.34,3.61-1.02,1.81-1.68,2.34-3,.78-2.78.78-4.37c0-1.3-.2-2.48-.61-3.54-.4-1.06-1.09-1.91-2.04-2.55-.96-.64-2.12-.96-3.49-.96Z" stroke-width="0"/><path d="m112.24,32.37c.23-2.64.52-7.39.85-14.24.33-6.85.54-12.77.62-17.75,1.63.03,2.78.05,3.47.05.92,0,2.05-.02,3.38-.05l-.56,8.55-.82,19.08-.09,4.36c-1.28-.03-2.37-.05-3.26-.05-.3,0-1.49.02-3.59.05Z" stroke-width="0"/><path d="m124.95,32.37c.24-2.34.4-4.3.5-5.88.16-2.5.3-5.38.42-8.65.12-3.27.2-6.37.25-9.3,1.52.03,2.66.05,3.42.05.7,0,1.83-.02,3.4-.05-.21,2.72-.38,5.31-.51,7.78-.13,2.47-.22,5.3-.28,8.48-.06,3.19-.09,5.71-.09,7.57-1.42-.03-2.57-.05-3.43-.05-.81,0-2.04.02-3.68.05Zm1.28-27.91c.06-1.61.09-2.84.09-3.7v-.75c1.42.03,2.58.05,3.47.05,1.22,0,2.35-.02,3.4-.05-.05.39-.08.84-.09,1.34l-.12,3.12c-1.19-.03-2.28-.05-3.28-.05s-2.16.02-3.47.05Z" stroke-width="0"/><path d="m137.58,32.37c.36-3.55.66-7.53.9-11.95.24-4.42.38-8.38.41-11.88,1.44.03,2.59.05,3.45.05,1.02,0,2.1-.02,3.24-.05l-.26,3.98c.48-.69.91-1.23,1.28-1.64s.84-.8,1.41-1.2c.57-.39,1.18-.7,1.83-.94s1.38-.42,2.18-.56,1.64-.21,2.52-.21c1.39,0,2.72.18,4,.53,1.27.35,2.3.91,3.08,1.68.78.77,1.3,1.6,1.55,2.51s.38,1.87.38,2.88c0,.42-.02,1.09-.07,2.02l-.48,10.24c-.06,1.42-.1,2.94-.12,4.55-1.24-.03-2.29-.05-3.17-.05-1.19,0-2.39.02-3.59.05.12-1.36.28-3.73.47-7.11s.28-5.62.28-6.71c0-1.23-.2-2.23-.59-2.98-.39-.75-1-1.32-1.81-1.71s-1.71-.59-2.66-.59-1.81.18-2.62.54-1.51.88-2.11,1.57c-.62.7-1.11,1.57-1.45,2.6-.36,1.09-.62,2.9-.8,5.41-.16,2.23-.28,5.23-.38,8.98-1.21-.03-2.29-.05-3.26-.05s-2.18.02-3.59.05Z" stroke-width="0"/><path d="m168.47,32.37l.47-6.09.54-11.7.26-10.01c.03-1.81.05-3.21.05-4.2,1.64.03,2.8.05,3.48.05.81,0,1.88-.02,3.2-.05l-.49,7.62-.56,12.14-.23,9.07-.02,3.16c-1.39-.03-2.48-.05-3.27-.05-.9,0-2.04.02-3.41.05Zm7.45-13.35l4.78-5.81c.41-.5.89-1.12,1.46-1.85.56-.73,1.28-1.68,2.14-2.83,1.62.03,2.81.05,3.56.05,1.03,0,2.33-.02,3.91-.05l-7.72,8.85-1.38,1.69c1.14,1.81,4.31,6.25,9.51,13.3-1.41-.03-2.61-.05-3.61-.05s-2.25.02-3.73.05c-.91-1.49-1.65-2.68-2.22-3.58-.57-.9-1.1-1.69-1.58-2.36l-3.99-5.7c-.11-.16-.48-.73-1.1-1.71Z" stroke-width="0"/></g></svg>